<mxfile host="app.diagrams.net" modified="2020-08-19T12:43:20.509Z" agent="5.0 (Macintosh; Intel Mac OS X 10_15_5) AppleWebKit/537.36 (KHTML, like Gecko) Chrome/84.0.4147.125 Safari/537.36" etag="eV0oJsWxMSxQWm7LfM7v" version="13.6.2" type="github">
  <diagram id="1uag1A9dU8ndo6XgfBcE" name="Page-1">
    <mxGraphModel dx="2066" dy="1105" grid="1" gridSize="10" guides="1" tooltips="1" connect="1" arrows="1" fold="1" page="1" pageScale="1" pageWidth="827" pageHeight="1169" math="0" shadow="0">
      <root>
        <mxCell id="0" />
        <mxCell id="1" parent="0" />
        <mxCell id="tTuaMh4XTpOzS0g85imv-1" value="&lt;font color=&quot;#00ff00&quot; style=&quot;font-size: 17px&quot;&gt;Process 1&lt;br&gt;acquire(&amp;amp;lock)&lt;br&gt;critical section&lt;br&gt;release(&amp;amp;lock)&lt;/font&gt;" style="whiteSpace=wrap;html=1;aspect=fixed;" vertex="1" parent="1">
          <mxGeometry x="240" y="190" width="120" height="120" as="geometry" />
        </mxCell>
        <mxCell id="tTuaMh4XTpOzS0g85imv-2" value="&lt;font style=&quot;font-size: 17px&quot; color=&quot;#ff0080&quot;&gt;Process 2&lt;br&gt;acquire(&amp;amp;lock)&lt;br&gt;critical section&lt;br&gt;release(&amp;amp;lock)&lt;/font&gt;" style="whiteSpace=wrap;html=1;aspect=fixed;" vertex="1" parent="1">
          <mxGeometry x="450" y="190" width="120" height="120" as="geometry" />
        </mxCell>
      </root>
    </mxGraphModel>
  </diagram>
</mxfile>
